HIERARCHY
ROOT hip
{
	OFFSET 0.000000 0.000000 0.000000 
	CHANNELS 6 Xposition Yposition Zposition Xrotation Zrotation Yrotation
	JOINT abdomen
	{
		OFFSET 0.000000 3.402643 0.000000 
		CHANNELS 3 Xrotation Zrotation Yrotation
		JOINT chest
		{
			OFFSET 0.000000 8.438565 -0.680529 
			CHANNELS 3 Xrotation Zrotation Yrotation
			JOINT neck
			{
				OFFSET 0.000000 10.207942 -0.272212 
				CHANNELS 3 Xrotation Zrotation Yrotation
				JOINT head
				{
					OFFSET 0.000000 3.130431 0.000000 
					CHANNELS 3 Xrotation Zrotation Yrotation
					End Site
					{
						OFFSET 0.000000 3.130435 0.000000 
					}
				}
			}
			JOINT lCollar
			{
				OFFSET 3.470700 6.669187 -0.816635 
				CHANNELS 3 Yrotation Zrotation Xrotation
				JOINT lShldr
				{
					OFFSET 3.198488 0.000000 0.000000 
					CHANNELS 3 Zrotation Yrotation Xrotation
					JOINT lForeArm
					{
						OFFSET 10.139888 0.000000 0.000000 
						CHANNELS 3 Yrotation Zrotation Xrotation
						JOINT lHand
						{
							OFFSET 8.370511 0.000000 0.000000 
							CHANNELS 3 Zrotation Yrotation Xrotation
							End Site
							{
								OFFSET 4.083176 0.000000 0.000000 
							}
						}
					}
				}
			}
			JOINT rCollar
			{
				OFFSET -3.470700 6.669187 -0.816635 
				CHANNELS 3 Yrotation Zrotation Xrotation
				JOINT rShldr
				{
					OFFSET -3.198488 0.000000 0.000000 
					CHANNELS 3 Zrotation Yrotation Xrotation
					JOINT rForeArm
					{
						OFFSET -10.139888 0.000000 0.000000 
						CHANNELS 3 Yrotation Zrotation Xrotation
						JOINT rHand
						{
							OFFSET -8.370511 0.000000 0.000000 
							CHANNELS 3 Zrotation Yrotation Xrotation
							End Site
							{
								OFFSET -4.083176 0.000000 0.000000 
							}
						}
					}
				}
			}
		}
	}
	JOINT lThigh
	{
		OFFSET 5.308129 -1.633274 1.361059 
		CHANNELS 3 Xrotation Zrotation Yrotation
		JOINT lShin
		{
			OFFSET -2.041588 -20.007561 0.000000 
			CHANNELS 3 Xrotation Zrotation Yrotation
			JOINT lFoot
			{
				OFFSET 0.000000 -19.190928 -1.224953 
				CHANNELS 3 Xrotation Yrotation Zrotation
				End Site
				{
					OFFSET 0.000000 -2.449906 4.627600 
				}
			}
		}
	}
	JOINT rThigh
	{
		OFFSET -5.308129 -1.633274 1.361059 
		CHANNELS 3 Xrotation Zrotation Yrotation
		JOINT rShin
		{
			OFFSET 2.041588 -20.007561 0.000000 
			CHANNELS 3 Xrotation Zrotation Yrotation
			JOINT rFoot
			{
				OFFSET 0.000000 -19.190928 -1.224953 
				CHANNELS 3 Xrotation Yrotation Zrotation
				End Site
				{
					OFFSET 0.000000 -2.449906 4.627600 
				}
			}
		}
	}
}
MOTION
Frames: 16
Frame Time: 0.016667
3.170338 49.499981 5.265557 7.085820 0.375677 -9.463069 0.000000 0.000000 0.000000 -25.465937 6.257510 4.981088 21.842888 -10.885044 4.504514 -4.044216 10.644526 -0.059389 -3.521967 9.154817 6.304141 -1.820047 18.660173 -17.543846 -17.444485 7.339677 19.034235 -9.324541 2.710995 -7.129768 3.089181 -14.089146 8.026228 1.119406 -10.271099 -10.490689 11.476501 -20.363913 57.800953 15.728607 -4.173336 -7.268639 -8.338711 14.605841 11.423560 19.980291 -5.872067 -6.218881 -2.908463 0.663498 -6.984254 -6.989261 -9.876269 -11.853497 6.990017 3.757942 -10.496055 -0.271361 -0.210047 1.968753 
3.171235 49.501873 5.267567 7.115117 0.375677 -9.463070 0.000000 0.000000 0.000000 -25.436556 6.258426 4.990810 21.816153 -11.001278 4.546567 -4.073554 10.683588 -0.059389 -3.521967 9.154817 6.304141 -1.848657 18.687767 -17.485792 -17.436653 7.328737 18.927059 -9.437653 2.680508 -7.112980 3.089181 -14.089146 8.026228 1.185814 -10.250400 -10.608675 11.471454 -20.401369 57.790047 15.777682 -4.179161 -7.265377 -8.347445 14.622452 11.432412 19.952995 -5.901490 -6.182925 -2.881792 0.656774 -7.028625 -7.018374 -9.866113 -11.862547 6.996897 3.726103 -10.477296 -0.230191 -0.197290 1.994322 
3.172139 49.503735 5.269592 7.144349 0.375666 -9.472834 0.000000 0.000000 0.000000 -25.407179 6.259342 5.000533 21.777559 -11.117345 4.596345 -4.104753 10.732413 -0.068982 -3.521967 9.154817 6.304141 -1.864294 18.709076 -17.422188 -17.432100 7.327035 18.821138 -9.550780 2.650100 -7.095643 3.089181 -14.089146 8.026228 1.244152 -10.231086 -10.734504 11.475207 -20.444033 57.785969 15.825561 -4.175648 -7.259562 -8.367611 14.643632 11.441072 19.937456 -5.921800 -6.174598 -2.852030 0.645915 -7.074657 -7.048240 -9.857580 -11.852148 6.986004 3.705524 -10.469191 -0.204794 -0.186931 1.998159 
3.174647 49.498306 5.275788 7.147442 0.356381 -9.492366 0.000000 0.000000 0.000000 -25.358330 6.292170 5.036682 21.769224 -11.001427 4.535118 -4.083248 10.615229 -0.059390 -3.521967 9.154817 6.304141 -1.894096 18.692646 -17.469231 -17.420982 7.326786 18.995674 -9.689281 2.665179 -7.087902 3.089181 -14.089146 8.026228 1.274569 -10.254337 -10.662516 11.485909 -20.438198 57.816280 15.835780 -4.186423 -7.253475 -8.328817 14.644573 11.433829 19.896534 -5.892200 -6.108138 -2.872571 0.655248 -7.060713 -7.039306 -9.839851 -11.852391 6.989200 3.718098 -10.449126 -0.199606 -0.191996 2.017090 
3.177148 49.492882 5.282000 7.148935 0.346729 -9.511838 0.000000 0.000000 0.000000 -25.299696 6.314361 5.064022 21.758755 -10.885335 4.483492 -4.052017 10.498044 -0.048011 -3.521967 9.154817 6.304141 -1.910741 18.679445 -17.503893 -17.412066 7.338812 19.162254 -9.828509 2.691541 -7.071811 3.089181 -14.089146 8.026228 1.296945 -10.279260 -10.598429 11.496607 -20.432362 57.846600 15.846686 -4.194536 -7.256761 -8.297686 14.629829 11.425430 19.855324 -5.862542 -6.051407 -2.890551 0.660891 -7.048278 -7.038905 -9.829221 -11.842414 6.996024 3.725342 -10.438302 -0.194710 -0.193706 2.026881 
3.177149 49.489571 5.292356 7.139110 0.346719 -9.521604 0.000000 0.000000 0.000000 -25.240877 6.327745 5.101998 21.742147 -10.720535 4.431894 -4.085588 10.322265 -0.019215 -3.521967 9.154817 6.304141 -1.943398 18.681870 -17.543478 -17.406437 7.335432 19.143768 -9.824746 2.740544 -7.079816 3.089181 -14.089146 8.026228 1.333410 -10.292613 -10.624412 11.534892 -20.470898 57.988762 15.945700 -4.127601 -7.238990 -8.269524 14.623389 11.427651 19.858807 -5.849898 -6.049448 -2.925139 0.657452 -7.039717 -7.009435 -9.838617 -11.843082 6.985031 3.724230 -10.429292 -0.233238 -0.195595 2.015900 
3.177139 49.486267 5.302706 7.127608 0.356330 -9.541194 0.000000 0.000000 0.000000 -25.182156 6.350851 5.139060 21.723417 -10.555566 4.389917 -4.127364 10.146483 0.020946 -3.521967 9.154817 6.304141 -1.969337 18.696501 -17.576153 -17.400810 7.332046 19.124039 -9.832355 2.796236 -7.099026 3.089181 -14.089146 8.026228 1.360132 -10.307744 -10.648665 11.569850 -20.511320 58.118565 16.045927 -4.070077 -7.224303 -8.238841 14.619620 11.419331 19.856798 -5.859330 -6.031462 -2.951577 0.658959 -7.028981 -6.991394 -9.851617 -11.843912 6.988429 3.736987 -10.418977 -0.267955 -0.204901 1.991596 
3.174019 49.490051 5.308599 7.179731 0.337078 -9.531371 0.000000 0.000000 0.000000 -25.201975 6.369380 5.127510 21.713831 -10.506608 4.409122 -4.175622 10.039054 0.080334 -3.521967 9.154817 6.304141 -2.018435 18.708715 -17.682940 -17.451019 7.382689 19.220539 -9.890640 2.879579 -7.097140 3.089181 -14.089146 8.026228 1.370816 -10.315138 -10.592690 11.520506 -20.463840 57.951553 15.963937 -4.115799 -7.237802 -8.318619 14.662932 11.424440 19.899614 -5.881160 -6.106295 -2.928920 0.659035 -7.028617 -7.031156 -9.823804 -11.833178 6.989080 3.737559 -10.448220 -0.281692 -0.205148 2.002036 
3.170905 49.493835 5.314502 7.241668 0.317835 -9.511842 0.000000 0.000000 0.000000 -25.212049 6.398546 5.124771 21.704279 -10.457651 4.428329 -4.233850 9.941378 0.139724 -3.521967 9.154817 6.304141 -2.070729 18.730099 -17.792202 -17.508459 7.417881 19.325357 -9.959101 2.960035 -7.105527 3.089181 -14.089146 8.026228 1.371761 -10.334185 -10.525272 11.459142 -20.412971 57.772186 15.873440 -4.172147 -7.253747 -8.386208 14.710131 11.458971 19.976221 -5.888915 -6.202178 -2.947238 0.669665 -7.024590 -7.078957 -9.792265 -11.802256 6.975214 3.743682 -10.477862 -0.290842 -0.206588 1.991074 
3.171187 49.497391 5.324059 7.267851 0.337117 -9.492310 0.000000 0.000000 0.000000 -25.192211 6.369380 5.127511 21.687056 -10.506057 4.449307 -4.199714 10.048812 0.109182 -3.521967 9.154817 6.304141 -2.139431 18.745716 -17.895380 -17.535143 7.442169 19.315557 -9.844851 2.980746 -7.120782 3.089181 -14.089146 8.026228 1.415277 -10.345673 -10.484089 11.400652 -20.414742 57.671009 15.851121 -4.143911 -7.253969 -8.415938 14.691675 11.467102 19.965244 -5.888661 -6.230406 -2.954192 0.654752 -7.009672 -7.087909 -9.819820 -11.821709 6.986212 3.744806 -10.486873 -0.292778 -0.207659 1.990680 
3.171477 49.500931 5.333597 7.294049 0.356401 -9.472836 0.000000 0.000000 0.000000 -25.182220 6.339298 5.120529 21.679564 -10.554460 4.470291 -4.163943 10.156238 0.089957 -3.521967 9.154817 6.304141 -2.205018 18.751898 -17.996084 -17.557341 7.460196 19.295267 -9.730616 3.001529 -7.135477 3.089181 -14.089146 8.026228 1.456993 -10.357486 -10.435082 11.342182 -20.416382 57.569820 15.818407 -4.119570 -7.243438 -8.434536 14.669484 11.465682 19.964968 -5.888612 -6.240116 -2.959472 0.658814 -6.997519 -7.107903 -9.840323 -11.831346 6.990016 3.757942 -10.496055 -0.294244 -0.204951 1.981238 
3.173745 49.500687 5.337054 7.302269 0.366044 -9.463070 0.000000 0.000000 0.000000 -25.123362 6.331407 5.140887 21.651556 -10.621616 4.539268 -4.121173 10.263655 0.109183 -3.521967 9.154817 6.304141 -2.298845 18.766727 -17.913437 -17.516558 7.424092 19.131077 -9.510090 3.111898 -7.166368 3.089181 -14.089146 8.026228 1.580738 -10.395435 -10.590224 11.448917 -20.473003 57.759289 15.791652 -4.141959 -7.247166 -8.426435 14.654599 11.437364 19.926239 -5.888850 -6.168581 -2.923758 0.664448 -7.015731 -7.116046 -9.856394 -11.850543 6.997061 3.765352 -10.494974 -0.261661 -0.205037 1.970621 
3.176025 49.500435 5.340506 7.310493 0.375687 -9.453303 0.000000 0.000000 0.000000 -25.054815 6.322600 5.151523 21.623383 -10.688747 4.610044 -4.086307 10.371062 0.139759 -3.521967 9.154817 6.304141 -2.402458 18.778944 -17.834074 -17.485212 7.384721 18.965975 -9.279965 3.223776 -7.196478 3.089181 -14.089146 8.026228 1.714401 -10.421118 -10.758682 11.564878 -20.519484 57.957714 15.757064 -4.172281 -7.261395 -8.426592 14.645276 11.417793 19.870413 -5.879413 -6.074337 -2.897378 0.667035 -7.035308 -7.116068 -9.866199 -11.870241 6.996668 3.784562 -10.484319 -0.240751 -0.201624 1.961365 
3.180566 49.494999 5.343604 7.318851 0.385353 -9.424008 0.000000 0.000000 0.000000 -24.957102 6.290687 5.125096 21.640335 -10.601140 4.610050 -4.014134 10.185475 0.218366 -3.521967 9.154817 6.304141 -2.639067 18.854153 -17.799316 -17.501278 7.379703 19.042379 -9.063861 3.361918 -7.240380 3.089181 -14.089146 8.026228 1.939567 -10.428821 -10.962380 11.561926 -20.531576 57.814838 15.577268 -4.370730 -7.315362 -8.445484 14.623904 11.406636 19.882454 -5.868530 -6.112286 -2.890559 0.660881 -7.048276 -7.127970 -9.900059 -11.919762 6.999782 3.816681 -10.473099 -0.223607 -0.203995 1.960388 
3.185085 49.489563 5.346667 7.327288 0.395032 -9.384946 0.000000 0.000000 0.000000 -24.869240 6.257859 5.088948 21.658085 -10.503799 4.608264 -3.952248 9.999868 0.298693 -3.521967 9.154817 6.304141 -2.872468 18.920702 -17.766008 -17.529663 7.380764 19.117870 -8.847350 3.501943 -7.273083 3.089181 -14.089146 8.026228 2.156980 -10.446662 -11.164489 11.560601 -20.538038 57.662922 15.387987 -4.570826 -7.366549 -8.476122 14.607872 11.385551 19.912327 -5.871934 -6.106757 -2.934470 0.646153 -7.023386 -7.116161 -9.915196 -11.968728 7.006759 3.843097 -10.471117 -0.199955 -0.187247 1.945742 
3.181944 49.487434 5.337779 7.372964 0.356532 -9.345885 0.000000 0.000000 0.000000 -24.742935 6.250535 5.011169 21.745405 -10.347772 4.625709 -4.150971 9.843518 0.396561 -3.521967 9.154817 6.304141 -3.366727 19.032602 -17.829054 -17.632450 7.435674 19.559473 -8.302640 3.812817 -7.361153 3.089181 -14.089146 8.026228 2.720180 -10.541758 -11.662185 11.819396 -20.711123 57.391155 15.266777 -4.929471 -7.445981 -8.533226 14.662111 11.410562 19.952160 -5.901329 -6.212056 -2.939168 0.653197 -7.020625 -7.155423 -9.886343 -11.967700 7.018787 3.864724 -10.537696 -0.206493 -0.186309 1.935670 
